<svg width="73" height="72" viewBox="0 0 73 72" fill="none" xmlns="http://www.w3.org/2000/svg">
<rect x="0.5" width="72" height="72" rx="36" fill="white"/>
<g clip-path="url(#clip0_993_1128)">
<path d="M32.3055 41.7045C31.8755 41.2802 32.0997 41.3998 31.0626 41.1259C30.5921 41.0014 30.1784 40.7621 29.8043 40.4755L27.5595 45.9071C27.3423 46.433 27.748 47.0043 28.3229 46.9828L30.93 46.8847L32.7231 48.7538C33.119 49.1659 33.8136 49.0375 34.0309 48.5116L36.6062 42.2802C36.0699 42.5751 35.4747 42.7479 34.8591 42.7479C33.8943 42.7479 32.9878 42.3773 32.3055 41.7045ZM46.4407 45.9071L44.1959 40.4755C43.8218 40.7626 43.4081 41.0014 42.9376 41.1259C41.8951 41.4013 42.1237 41.2812 41.6947 41.7045C41.0124 42.3773 40.1054 42.7479 39.1406 42.7479C38.525 42.7479 37.9298 42.5746 37.3935 42.2802L39.9688 48.5116C40.1861 49.0375 40.8812 49.1659 41.2766 48.7538L43.0702 46.8847L45.6773 46.9828C46.2522 47.0043 46.6579 46.4325 46.4407 45.9071ZM40.5131 40.5995C41.2692 39.8402 41.3558 39.9057 42.4324 39.6161C43.1197 39.4311 43.657 38.8915 43.8411 38.2011C44.2112 36.8144 44.1152 36.9818 45.1251 35.9672C45.6283 35.4618 45.8247 34.725 45.6406 34.0346C45.271 32.6488 45.2705 32.8422 45.6406 31.455C45.8247 30.7646 45.6283 30.0277 45.1251 29.5224C44.1152 28.5077 44.2112 28.6747 43.8411 27.2885C43.657 26.598 43.1197 26.0585 42.4324 25.8734C41.0529 25.5019 41.2192 25.599 40.2083 24.5839C39.7051 24.0785 38.9713 23.8808 38.2841 24.0658C36.9051 24.4369 37.0976 24.4374 35.7161 24.0658C35.0288 23.8808 34.2951 24.078 33.7919 24.5839C32.782 25.5985 32.9482 25.5019 31.5683 25.8734C30.881 26.0585 30.3437 26.598 30.1596 27.2885C29.79 28.6747 29.8855 28.5077 28.8756 29.5224C28.3724 30.0277 28.1755 30.7646 28.36 31.455C28.7297 32.8397 28.7301 32.6464 28.36 34.0341C28.176 34.7245 28.3724 35.4613 28.8756 35.9672C29.8855 36.9818 29.7895 36.8144 30.1596 38.2011C30.3437 38.8915 30.881 39.4311 31.5683 39.6161C32.6756 39.914 32.7582 39.8671 33.4871 40.5995C34.1417 41.2572 35.1615 41.3749 35.9482 40.8837C36.2628 40.6866 36.6277 40.5819 37.0003 40.5819C37.373 40.5819 37.7379 40.6866 38.0525 40.8837C38.8387 41.3749 39.8585 41.2572 40.5131 40.5995ZM32.3322 32.5897C32.3322 30.0004 34.4222 27.9013 37.0001 27.9013C39.578 27.9013 41.668 30.0004 41.668 32.5897C41.668 35.1791 39.578 37.2782 37.0001 37.2782C34.4222 37.2782 32.3322 35.1791 32.3322 32.5897Z" fill="#00A0C1"/>
</g>
<defs>
<clipPath id="clip0_993_1128">
<rect width="19" height="25" fill="white" transform="translate(27.5 24)"/>
</clipPath>
</defs>
</svg>
