<svg width="72" height="72" viewBox="0 0 72 72" fill="none" xmlns="http://www.w3.org/2000/svg">
<rect width="72" height="72" rx="36" fill="white"/>
<g clip-path="url(#clip0_993_1144)">
<g clip-path="url(#clip1_993_1144)">
<path d="M39.4277 29.7495H47.4263V32.0464H39.4277V29.7495Z" fill="#00A0C1"/>
<path d="M39.4277 35.4917H47.4263V37.7886H39.4277V35.4917Z" fill="#00A0C1"/>
<path d="M39.4277 41.2336H47.4263V43.5305H39.4277V41.2336Z" fill="#00A0C1"/>
<path d="M49.7109 24.0073H22.2873C21.6813 24.0079 21.1004 24.2501 20.672 24.6807C20.2435 25.1114 20.0026 25.6952 20.002 26.3042V46.9761C20.0026 47.5851 20.2435 48.169 20.672 48.5996C21.1004 49.0302 21.6813 49.2724 22.2873 49.273H49.7109C50.3168 49.2721 50.8975 49.0298 51.3259 48.5992C51.7543 48.1687 51.9953 47.585 51.9962 46.9761V26.3042C51.9956 25.6952 51.7547 25.1114 51.3262 24.6807C50.8978 24.2501 50.3169 24.0079 49.7109 24.0073ZM22.2873 26.3042H34.8564V46.9761H22.2873V26.3042ZM37.1418 46.9761V26.3042H49.7109L49.7132 46.9761H37.1418Z" fill="#00A0C1"/>
</g>
</g>
<defs>
<clipPath id="clip0_993_1144">
<rect width="32" height="26.353" fill="white" transform="translate(20 23)"/>
</clipPath>
<clipPath id="clip1_993_1144">
<rect width="32" height="25.28" fill="white" transform="translate(20 24)"/>
</clipPath>
</defs>
</svg>
