<svg width="73" height="72" viewBox="0 0 73 72" fill="none" xmlns="http://www.w3.org/2000/svg">
<rect x="0.5" width="72" height="72" rx="36" fill="white"/>
<g clip-path="url(#clip0_993_1107)">
<g clip-path="url(#clip1_993_1107)">
<path d="M36.4029 35.7042C39.0034 35.7042 41.0259 33.5695 41.0259 30.9497C41.0259 28.3299 38.9071 26.2922 36.3066 26.2922C33.7062 26.2922 31.6836 28.4269 31.6836 30.9497C31.6836 33.5695 33.8025 35.7042 36.4029 35.7042ZM36.3066 28.2328C36.4029 28.2328 36.4029 28.2328 36.3066 28.2328C37.8476 28.2328 39.0997 29.4942 39.0997 31.0467C39.0997 32.5992 37.8476 33.7636 36.3066 33.7636C34.7656 33.7636 33.6099 32.5022 33.6099 31.0467C33.6099 29.4942 34.8619 28.2328 36.3066 28.2328Z" fill="#00A0C1"/>
<path d="M50.6585 35.1218C48.8286 33.4723 46.4208 32.599 43.9166 32.696H43.1461C42.9535 33.4723 42.6645 34.1515 42.2793 34.7337C42.8572 34.6366 43.3387 34.6366 43.9166 34.6366C45.7466 34.5396 47.5765 35.1218 49.0212 36.1891V43.1753H50.9475V35.4129L50.6585 35.1218Z" fill="#00A0C1"/>
<path d="M41.7019 26.4859C42.1835 25.3215 43.5318 24.7394 44.7839 25.2245C45.9397 25.7097 46.5175 27.0681 46.036 28.3295C45.6507 29.2027 44.7839 29.7849 43.9171 29.7849C43.7245 29.7849 43.4355 29.7849 43.2429 29.6879C43.3392 30.173 43.3392 30.6582 43.3392 31.0463V31.6285C43.5318 31.6285 43.7245 31.7255 43.9171 31.7255C46.3249 31.7255 48.2512 29.7849 48.2512 27.4562C48.2512 25.0304 46.3249 23.0898 44.0134 23.0898C42.4724 23.0898 41.124 23.8661 40.3535 25.2245C40.8351 25.5156 41.3166 25.9037 41.7019 26.4859Z" fill="#00A0C1"/>
<path d="M30.7209 34.8308C30.3356 34.2487 30.0467 33.5694 29.8541 32.7932H29.0836C26.5794 32.6962 24.1716 33.5694 22.3417 35.1219L22.0527 35.413V43.1754H23.979V36.1893C25.52 35.1219 27.2536 34.5397 29.0836 34.6368C29.6615 34.6368 30.2393 34.7338 30.7209 34.8308Z" fill="#00A0C1"/>
<path d="M29.0847 31.6289C29.2773 31.6289 29.4699 31.6289 29.6626 31.5319V30.9497C29.6626 30.4645 29.6626 29.9794 29.7589 29.5913C29.5663 29.6883 29.2773 29.6883 29.0847 29.6883C27.8326 29.6883 26.7732 28.621 26.7732 27.3596C26.7732 26.0982 27.8326 25.0308 29.0847 25.0308C30.0478 25.0308 30.9146 25.613 31.2999 26.4863C31.6851 26.0012 32.263 25.516 32.7446 25.1279C31.4925 23.0902 28.8921 22.411 26.8695 23.6724C24.8469 24.9338 24.1727 27.5536 25.4248 29.5913C26.1953 30.8527 27.5437 31.6289 29.0847 31.6289Z" fill="#00A0C1"/>
<path d="M44.3013 40.9437L44.1087 40.6526C42.1824 38.518 39.4857 37.2566 36.5963 37.3536C33.7069 37.2566 30.9138 38.518 28.9875 40.6526L28.7949 40.9437V48.318C28.7949 49.1913 29.4691 49.9675 30.4322 49.9675H42.7603C43.6271 49.9675 44.3976 49.1913 44.3976 48.318V40.9437H44.3013ZM42.375 48.0269H30.7212V41.6229C32.2622 40.0705 34.3811 39.2942 36.5963 39.2942C38.7152 39.1972 40.834 40.0705 42.375 41.6229V48.0269Z" fill="#00A0C1"/>
</g>
</g>
<defs>
<clipPath id="clip0_993_1107">
<rect width="32" height="26.353" fill="white" transform="translate(20.5 23)"/>
</clipPath>
<clipPath id="clip1_993_1107">
<rect width="29" height="27" fill="white" transform="translate(22 23)"/>
</clipPath>
</defs>
</svg>
